<svg width="24" height="27" viewBox="0 0 24 27" fill="none" xmlns="http://www.w3.org/2000/svg">
<path d="M2.62357 26.6176C2.12369 26.6176 1.68629 26.3989 1.31139 25.9615C0.936478 25.5241 0.749023 25.0138 0.749023 24.4306V2.56099C0.749023 1.9778 0.936478 1.46751 1.31139 1.03011C1.68629 0.59272 2.12369 0.374023 2.62357 0.374023H17.0575L23.2435 7.59101V24.4306C23.2435 25.0138 23.0561 25.5241 22.6812 25.9615C22.3063 26.3989 21.8689 26.6176 21.369 26.6176H2.62357ZM2.62357 24.4306H21.369V8.80948H16.0265V2.56099H2.62357V24.4306ZM5.71656 20.3848H18.276V18.1978H5.71656V20.3848ZM5.71656 8.79384H11.9963V6.60688H5.71656V8.79384ZM5.71656 14.5893H18.276V12.4023H5.71656V14.5893Z" fill="#020409"/>
</svg>
