<svg width="23" height="18" viewBox="0 0 23 18" fill="none" xmlns="http://www.w3.org/2000/svg">
<path d="M2.36819 17.341C1.94136 17.341 1.56788 17.1809 1.24776 16.8608C0.927639 16.5407 0.767578 16.1672 0.767578 15.7404V1.86843C0.767578 1.4416 0.927639 1.06813 1.24776 0.748005C1.56788 0.427883 1.94136 0.267822 2.36819 0.267822H20.5084C20.9353 0.267822 21.3087 0.427883 21.6289 0.748005C21.949 1.06813 22.109 1.4416 22.109 1.86843V15.7404C22.109 16.1672 21.949 16.5407 21.6289 16.8608C21.3087 17.1809 20.9353 17.341 20.5084 17.341H2.36819ZM11.4383 9.28459L2.36819 3.33566V15.7404H20.5084V3.33566L11.4383 9.28459ZM11.4383 7.68398L20.4017 1.86843H2.50157L11.4383 7.68398ZM2.36819 3.33566V1.86843V15.7404V3.33566Z" fill="#7DF28F"/>
</svg>
