<svg width="23" height="28" viewBox="0 0 23 28" fill="none" xmlns="http://www.w3.org/2000/svg">
<path d="M11.2031 13.65C11.8777 13.65 12.4542 13.4098 12.9325 12.9294C13.4108 12.449 13.65 11.8715 13.65 11.1969C13.65 10.5223 13.4098 9.94583 12.9294 9.4675C12.449 8.98917 11.8715 8.75 11.1969 8.75C10.5223 8.75 9.94583 8.9902 9.4675 9.47061C8.98917 9.951 8.75 10.5285 8.75 11.2031C8.75 11.8777 8.99021 12.4542 9.47062 12.9325C9.951 13.4108 10.5285 13.65 11.2031 13.65ZM11.2 25.235C14.3033 22.4117 16.5958 19.8508 18.0775 17.5525C19.5592 15.2542 20.3 13.23 20.3 11.48C20.3 8.73157 19.4216 6.48112 17.6648 4.72867C15.908 2.97622 13.7531 2.1 11.2 2.1C8.64694 2.1 6.49201 2.97622 4.73522 4.72867C2.97841 6.48112 2.1 8.73157 2.1 11.48C2.1 13.23 2.85833 15.2542 4.375 17.5525C5.89167 19.8508 8.16667 22.4117 11.2 25.235ZM11.2 28C7.44333 24.8033 4.6375 21.8342 2.7825 19.0925C0.9275 16.3508 0 13.8133 0 11.48C0 7.98 1.12583 5.19167 3.3775 3.115C5.62917 1.03833 8.23667 0 11.2 0C14.1633 0 16.7708 1.03833 19.0225 3.115C21.2742 5.19167 22.4 7.98 22.4 11.48C22.4 13.8133 21.4725 16.3508 19.6175 19.0925C17.7625 21.8342 14.9567 24.8033 11.2 28Z" fill="#020409"/>
</svg>
