<svg width="23" height="23" viewBox="0 0 23 23" fill="none" xmlns="http://www.w3.org/2000/svg">
<path d="M8.6875 16.5625L16.5625 11.5L8.6875 6.4375V16.5625ZM11.5 22.75C9.94375 22.75 8.48125 22.4547 7.1125 21.8641C5.74375 21.2734 4.55312 20.4719 3.54062 19.4594C2.52813 18.4469 1.72656 17.2563 1.13594 15.8875C0.545312 14.5187 0.25 13.0562 0.25 11.5C0.25 9.94375 0.545312 8.48125 1.13594 7.1125C1.72656 5.74375 2.52813 4.55312 3.54062 3.54062C4.55312 2.52813 5.74375 1.72656 7.1125 1.13594C8.48125 0.545312 9.94375 0.25 11.5 0.25C13.0562 0.25 14.5187 0.545312 15.8875 1.13594C17.2563 1.72656 18.4469 2.52813 19.4594 3.54062C20.4719 4.55312 21.2734 5.74375 21.8641 7.1125C22.4547 8.48125 22.75 9.94375 22.75 11.5C22.75 13.0562 22.4547 14.5187 21.8641 15.8875C21.2734 17.2563 20.4719 18.4469 19.4594 19.4594C18.4469 20.4719 17.2563 21.2734 15.8875 21.8641C14.5187 22.4547 13.0562 22.75 11.5 22.75ZM11.5 20.5C14.0125 20.5 16.1406 19.6281 17.8844 17.8844C19.6281 16.1406 20.5 14.0125 20.5 11.5C20.5 8.9875 19.6281 6.85938 17.8844 5.11562C16.1406 3.37187 14.0125 2.5 11.5 2.5C8.9875 2.5 6.85938 3.37187 5.11562 5.11562C3.37187 6.85938 2.5 8.9875 2.5 11.5C2.5 14.0125 3.37187 16.1406 5.11562 17.8844C6.85938 19.6281 8.9875 20.5 11.5 20.5Z" fill="black"/>
</svg>
