<?xml version="1.0" encoding="UTF-8" standalone="no"?>
<svg
   version="1.1"
   width="472.37375pt"
   height="205.0578pt"
   id="svg104"
   viewBox="0 0 472.37375 205.0578"
   sodipodi:docname="IgrejaBatista logo 16cv.cdr"
   xmlns:inkscape="http://www.inkscape.org/namespaces/inkscape"
   xmlns:sodipodi="http://sodipodi.sourceforge.net/DTD/sodipodi-0.dtd"
   xmlns="http://www.w3.org/2000/svg"
   xmlns:svg="http://www.w3.org/2000/svg">
  <defs
     id="defs108" />
  <sodipodi:namedview
     id="namedview106"
     pagecolor="#ffffff"
     bordercolor="#000000"
     borderopacity="0.25"
     inkscape:showpageshadow="2"
     inkscape:pageopacity="0.0"
     inkscape:pagecheckerboard="0"
     inkscape:deskcolor="#d1d1d1"
     showgrid="false"
     inkscape:document-units="pt" />
  <g
     id="Layer1000"
     transform="translate(-61.248797,-528.90348)">
    <g
       id="Layer1001">
      <path
         d="m 460.1876,693.968 c -1.1398,-3.3494 1.8135,-6.214 3.7535,-7.3244 l -2.1375,6.0277 c -1.0415,1.9228 0.4586,0.4581 -1.616,1.2967 z m 24.9676,-17.9702 c 2.9996,9.0516 -12.6436,24.5428 -18.1081,18.7756 -3.5303,-3.726 1.7294,-11.8724 3.8963,-13.8937 2.4242,-2.2611 9.42,-6.6949 14.2118,-4.8819 z m 19.8579,5.7983 c -0.1357,-5.393 6.8191,-13.0871 9.995,-15.9032 2.9036,-2.5746 12.4402,-2.4215 14.4145,8.5015 2.8331,15.6744 -21.3716,30.212 -24.6604,13.7989 l 5.1662,-1.6576 c -0.5397,-3.1342 -0.0682,-2.0993 -4.9153,-4.7396 z m -2.2036,-3.1347 c -0.6916,-4.2732 2.7718,-8.023 5.6585,-9.5202 -1.1021,2.9045 -1.6329,2.0342 -2.9453,4.9521 -1.2455,2.769 -0.5635,2.4985 -2.7132,4.5681 z m 30.8131,-2.1735 v -4.6427 l -1.5045,-4.913 c -3.1106,-1.5393 -1.9304,0.5657 -4.7057,-2.4445 -1.1631,-1.2614 -2.3535,-2.6633 -3.1995,-3.8589 -13.5506,-0.6534 -26.0883,11.9836 -25.3092,19.2446 0.257,2.3947 1.4158,2.9376 1.4266,5.9628 0.009,2.4181 -0.2327,4.6066 -0.1704,7.2523 -3.6326,-2.4333 -6.4754,-19.8773 -8.9035,-25.2406 -2.1169,-4.6757 -4.1449,-7.7551 -9.5361,-3.7909 -1.8049,1.3271 -7.0537,6.694 -7.9568,9.5797 5.2819,-0.6375 3.6818,-4.2921 8.0613,-5.6588 2.5964,0.9237 3.9928,3.761 4.1537,6.3224 -6.6889,-3.0137 -14.2138,2.7619 -19.4391,6.7761 -4.3207,3.3195 -12.5994,9.1021 -11.2267,16.2962 1.2624,1.0453 2.7206,1.962 4.7351,2.0007 4.3172,0.0831 1.4482,0.2864 4.8729,1.0005 3.3427,0.6972 7.865,-2.0368 10.2845,-3.4106 8.0306,-4.5598 8.4628,-6.3837 13.8318,-12.9495 1.3017,1.4989 2.6682,6.6638 3.9451,9.1161 6.5896,12.6549 7.0153,4.4832 11.1201,5.9186 2.7567,0.9641 2.3093,1.7234 6.5762,1.5997 4.3364,-0.1257 8.6597,-2.5872 11.1246,-4.9004 10.5922,-9.9395 10.2104,-16.9827 11.8196,-19.2598 z"
         style="fill:#1b1918;fill-rule:evenodd"
         id="path4" />
      <path
         d="m 431.9823,689.8239 c -3.1147,-3.5878 1.5925,-11.8717 4.4256,-13.0494 -0.9358,2.2333 -1.6195,3.6862 -2.5133,6.2219 -0.888,2.5194 -1.2216,4.8299 -1.9123,6.8275 z m 23.5426,-31.4854 c -7.4708,-0.2581 -19.5483,13.3347 -22.6544,17.9284 -12.1157,17.9186 -2.1181,19.6177 5.518,23.4765 l 0.0445,4.7762 c 2.8588,0.0303 7.8903,1.6036 5.2638,4.2761 -2.9563,3.0079 -6.2051,-2.3779 -6.4576,-2.5388 -2.0742,1.2438 -2.7017,1.6457 -3.1792,4.1132 2.4163,2.1411 5.8392,3.0572 9.6379,1.0123 2.4926,-1.3418 9.2559,-6.8811 0.6922,-10.3078 l -1.6505,-0.7287 c 1.2852,-2.821 2.9201,-2.0464 6.1166,-4.081 5.4115,-3.4444 11.7761,-10.5707 12.3628,-17.335 -1.6754,0.9152 -0.649,-0.4919 -3.1117,3.5384 l -8.0041,9.0878 c -4.3704,3.4658 -13.4807,5.9398 -14.469,-2.3668 -0.7662,-6.4412 3.6741,-13.5076 6.2145,-17.0595 4.0197,-5.6202 6.6055,-6.636 12.9823,-9.2374 z"
         style="fill:#1b1918;fill-rule:evenodd"
         id="path6" />
      <path
         d="m 470.9131,653.481 c 6.4734,0.5989 7.9854,-5.7852 17.5102,-0.5508 5.4033,2.9693 13.1666,-1.4619 13.9098,-6.479 -3.1971,0.7648 -5.2914,2.8207 -8.9904,1.6626 -2.9951,-0.9375 -4.1234,-3.0297 -8.2061,-2.9175 -4.097,0.1127 -13.1244,4.3164 -14.2235,8.2847 z"
         style="fill:#1b1918;fill-rule:evenodd"
         id="path8" />
    </g>
    <g
       id="Layer1002">
      <path
         d="m 348.9977,672.0318 c -0.8568,2.3951 0.4318,1.1121 -1.7396,1.7381 0.4224,-2.2068 -1.1253,-0.9431 1.7396,-1.7381 z m 21.2118,-0.9628 c -0.7123,2.2421 0.7235,1.447 -1.7889,1.3228 0.632,-1.7883 -0.2886,-1.1298 1.7889,-1.3228 z m -2.6401,-3.424 c -1.2402,-1.8363 -0.9561,-5.7955 -1.6324,-7.8819 l -3.17,-0.1427 c -0.371,0.1017 -2.5452,1.016 -3.442,1.3312 -1.7292,0.6078 -5.3798,1.4339 -6.5295,1.9624 -2.2107,1.0162 -2.4272,3.1575 -4.1004,4.5328 -3.4303,2.8199 -1.9717,-0.438 -5.4349,1.7206 -1.9278,2.5772 -0.0476,2.3557 -1.9559,5.3512 -1.3289,2.0863 -1.4706,2.3059 -2.6562,4.5374 -1.0822,2.0366 -1.5447,2.3637 -2.3065,4.9843 -0.8564,2.9458 -1.3148,4.06 0.9565,5.4077 1.0632,-2.2004 0.7173,-9.5726 5.8437,-11.0654 l 0.0628,21.0552 c 9.3525,0.6757 1.735,-4.1401 7.6104,-25.3921 0.4427,-1.6014 1.3277,-5.3317 2.5466,-6.6014 1.2116,-1.262 4.935,-2.7314 6.969,-2.9514 1.5359,1.1981 3.1048,2.9462 3.3113,5.3777 0.3823,4.5065 -10.4112,14.0099 -5.2856,18.327 0.8108,-1.0404 0.1532,0.2986 0.5884,-1.457 0.1116,-0.4506 0.2051,-1.2337 0.2966,-1.7494 0.5927,-3.3446 1.9915,-6.7351 5.2717,-7.5602 l 0.0437,20.9845 c 8.6983,0.6288 2.1442,-3.9019 8.1224,-27.4099 1.1184,-4.3974 1.2518,-4.7163 4.8448,-6.3817 6.4317,-2.981 3.7728,-0.7421 7.1553,2.1593 4.5023,-0.6957 3.7548,-4.9428 2.345,-8.5583 -2.5062,-0.3904 -8.0148,2.2456 -10.8185,3.0066 -6.9898,1.8968 -3.3115,4.7591 -8.6363,6.4135 z"
         style="fill:#1b1918;fill-rule:evenodd"
         id="path11" />
      <path
         d="m 391.2993,675.0269 c 0.4854,-1.7552 10.8991,-15.8312 14.3212,-12.3548 2.9886,3.0358 -1.9703,7.2299 -4.4288,8.4744 -3.9825,2.0158 -6.1982,0.9448 -9.8924,3.8804 z m 24.2488,5.8805 c -4.3032,0.3377 -8.4239,9.5369 -18.1955,12.7107 -13.5815,4.4113 -12.0552,-8.9381 -8.067,-16.2904 4.5668,0.255 3.7772,0.8126 8.2792,-1.1504 2.9365,-1.2804 5.0148,-2.5185 7.1163,-4.1338 3.378,-2.5966 8.8979,-8.2576 6.6943,-14.3948 -4.7152,-1.3076 -8.8179,0.4804 -12.0933,2.3861 -2.1765,1.2661 -7.4332,5.1961 -9.0733,6.7614 -5.9177,5.6481 -2.7407,5.5534 -4.1867,10.3939 -0.421,1.4095 -9.6111,17.7393 0.2362,21.2481 3.8357,1.3669 10.2466,-0.8045 12.971,-2.2308 4.6731,-2.4464 15.1846,-10.1342 16.3188,-15.3 z"
         style="fill:#1b1918;fill-rule:evenodd"
         id="path13" />
      <path
         d="m 418.154,652.4915 c -0.0114,2.797 0.8225,3.951 1.8532,5.8037 l 3.4363,0.0952 0.1688,2.8856 -3.2698,0.7202 c -4.1172,1.0216 -3.1219,4.2847 -3.1255,14.4035 l 2.34,23.8663 c 3.004,-0.0592 2.4712,-0.2626 5.0804,-1.0727 0.4605,-2.2094 1.7379,-15.6646 1.0366,-17.9662 -0.7031,-2.3082 -0.9869,-0.2245 -3.2482,0.3011 l 2.7625,-5.1285 1.1766,-20.7322 c 0.2818,-2.3297 -0.3284,-3.8119 -1.4041,-5.693 -3.3484,-0.2762 -5.0443,1.146 -6.8068,2.517 z"
         style="fill:#1b1918;fill-rule:evenodd"
         id="path15" />
    </g>
    <g
       id="Layer1003">
      <path
         d="m 260.2255,681.8408 c 1.2436,5.4527 -5.0662,10.3016 -7.9742,11.3816 -7.3944,2.7457 -11.9835,-0.7582 -16.8046,2.4963 1.4176,4.3326 14.0574,5.54 24.4628,-4.6854 2.4773,-2.4344 3.2088,-4.906 5.3921,-7.3432 3.6613,1.7623 2.1943,4.2752 12.5269,2.1956 3.7518,-0.755 8.4013,-4.3334 12.1837,-2.9274 1.4454,3.6577 -0.1263,4.5601 -2.2286,6.996 -9.186,10.6436 -17.9078,2.0048 -22.0007,7.069 3.2135,5.1353 18.5838,3.7383 27.0561,-9.2358 2.5818,-3.9538 3.5418,-4.606 3.0537,-10.332 -6.9741,-6.1674 -16.6806,3.9008 -24.1943,1.4739 -1.6963,-4.8787 2.3096,-9.4449 6.5403,-12.0573 2.1264,-1.313 3.6516,-2.649 6.0137,-3.8764 1.0252,-0.5329 2.5982,-1.1592 3.5113,-1.3288 1.0938,-0.2029 1.3537,-0.2901 2.4677,-0.1092 3.4941,0.568 -1.7773,-0.6464 1.1752,0.3448 4.6042,1.5458 -0.1746,4.026 -0.6552,6.5046 4.9279,-0.588 4.1422,-3.6028 9.0127,-2.9041 3.7111,9.7294 -5.2711,29.2206 1.6875,34.0198 11.5192,2.5849 15.5565,-13.2633 20.1942,-20.5804 0.9267,3.502 1.4052,17.0594 10.3675,20.467 2.7948,1.0626 6.5903,0.1541 7.363,-2.3861 -2.224,-1.262 -6.7713,2.2231 -9.5564,-13.6161 -1.2142,-6.9056 -0.1369,-16.2301 -0.621,-23.7271 -5.8083,1.0517 -6.6374,1.13 -7.6751,7.0202 -1.3175,7.4769 -4.3228,14.2212 -7.6099,21.0755 -1.6896,3.5231 -3.2289,7.8159 -8.5187,6.5498 -5.1673,-7.4617 5.5379,-30.3982 0.0394,-34.5698 -4.7738,-2.432 -7.0458,2.5761 -10.2247,3.1335 -0.003,-11.7833 -11.2966,-3.9998 -15.4008,-0.3973 -6.3529,5.5765 -8.5054,7.3118 -12.5356,14.931 -1.6539,-0.7558 -2.3176,-2.464 -4.7741,-2.9302 -2.5499,-0.4839 -4.9884,0.2467 -7.1016,0.8776 -3.9211,1.1703 -11.1259,4.4464 -13.3238,2.2806 -4.2625,-4.2003 9.8336,-17.739 19.7944,-16.9302 0.9616,1.4802 1.1197,2.8689 2.1188,4.2817 0.1067,-0.1279 0.2283,-0.5189 0.2624,-0.4246 0.0738,0.2044 0.8644,-0.5378 1.0569,-3.5564 0.1365,-2.1409 -0.3804,-3.4751 -0.9937,-4.7096 -8.7713,-2.9625 -22.2444,11.3502 -25.4098,17.091 -3.1132,5.6462 -5.717,12.8981 3.9798,12.38 3.0623,-0.1637 6.6086,-0.9065 9.0694,-1.9109 2.6939,-1.0999 4.8995,-2.7829 8.2733,-2.0312 z"
         style="fill:#1b1918;fill-rule:evenodd"
         id="path18" />
      <path
         d="m 211.5079,677.4581 c 0.8626,-1.83 10.7774,-15.0717 14.344,-11.7102 2.9782,2.8069 -2.4511,7.1377 -4.2742,8.1241 z m 23.9953,6.1394 c -3.9382,1.2934 -10.0714,10.1921 -18.0551,12.83 -4.5954,1.5182 -9.6201,0.3892 -10.6286,-3.4063 -1.2713,-4.7848 1.4015,-9.1044 2.1965,-12.737 12.4071,1.3563 24.9858,-11.8862 23.0145,-18.189 -2.3639,-7.5582 -22.3351,6.1139 -25.1835,12.1065 -1.652,3.4759 0.5234,3.7165 -1.9399,8.4977 -9.4197,18.2842 4.5248,24.9849 20.3262,12.3991 4.6174,-3.6778 9.5608,-7.2043 10.2699,-11.501 z"
         style="fill:#1b1918;fill-rule:evenodd"
         id="path20" />
    </g>
    <path
       d="m 226.8554,628.0352 c 0.4238,-3.9306 1.3028,-6.2119 4.267,-7.0237 -0.6173,1.4803 -0.9699,1.9488 -1.4521,3.481 -1.0857,3.4491 -0.6143,2.5598 -2.8149,3.5427 z m 40.9029,5.7467 c 2.2252,-1.0498 3.6139,-1.7371 4.103,-4.2989 l -3.9361,-0.4932 c -7.0286,-4.4751 -6.0937,-28.3125 -14.3751,-32.2961 -3.4606,-0.7403 -11.8787,7.2433 -12.6711,11.3202 4.9673,-0.9986 3.7103,-4.7689 8.0859,-5.5632 2.1497,0.9768 3.2605,2.981 3.6886,5.71 -5.5333,-0.7251 -5.9948,-0.5375 -10.7031,1.7466 -4.5728,2.2185 -4.7747,2.5077 -8.4226,5.3565 -4.273,3.3367 -11.897,8.1213 -11.0519,15.8721 1.4956,1.2373 2.4746,1.8177 4.9066,2.0738 6.9528,0.7318 4.394,3.3146 15.3848,-2.6604 9.0302,-4.9093 8.9947,-8.3971 13.2832,-12.8238 2.5674,6.7717 4.7217,17.1258 11.7078,16.0564 z m -33.1801,-4.3571 c -1.6541,-3.0244 -2.4629,-3.7188 -0.7434,-8.0481 3.5445,-8.9243 13.8127,-12.7451 16.9028,-11.5449 5.6177,2.1823 -3.9073,21.343 -16.1594,19.593 z"
       style="fill:#1b1918;fill-rule:evenodd"
       id="path23" />
    <path
       d="m 215.9949,560.6534 c -3.4807,1.9219 -3.0145,3.9786 -2.6209,9.5941 0.1461,0.1145 0.4104,0.0359 0.4859,0.2713 0.5431,1.6968 2.8376,-1.495 2.1199,6.2128 -0.4171,4.4807 0.8232,5.4667 -2.5928,6.9002 0.4002,4.7266 2.4204,16.2688 0.8627,19.6324 l -8.2414,0.6364 c 2.2205,6.8537 9.313,-2.4318 8.3571,9.7326 -0.7225,9.1956 -0.0642,10.6678 -0.0924,19.9626 2.2793,0.0675 4.1721,-0.5704 5.7575,-1.4755 l 0.0794,-25.7572 9.1546,-0.4786 c -3.042,-3.6951 -4.1634,-2.6259 -9.1588,-2.6503 -0.2489,-6.9887 -0.0404,-15.9218 0.464,-22.5854 0.5373,-7.0969 -0.851,-14.6957 -0.6374,-21.7467 l -1.8273,-0.6959 c -0.3878,0.952 0.0703,0.47 -0.6796,1.4279 -0.9862,1.2598 0.1347,0.0934 -1.4305,1.0193 z"
       style="fill:#1b1918;fill-rule:evenodd"
       id="path25" />
    <path
       d="m 187.7429,599.9131 -1.9212,1.4752 c -2.309,2.3661 -12.4608,13.3724 -8.0716,18.6331 4.5365,5.4369 17.1284,-2.8494 22.625,-2.2228 0.767,4.0994 -0.2402,4.293 -2.5272,7.0449 -7.6779,9.2384 -14.3419,2.8294 -21.6561,6.5193 2.1558,4.8813 12.5075,4.5061 20.1849,-1.4391 4.6514,-3.6021 10.7026,-9.2858 9.7298,-17.5502 -7.6595,-6.0246 -15.357,3.5893 -23.5471,1.5312 -2.6513,-5.3423 3.9834,-10.1427 7.1769,-12.4002 1.178,-0.8328 12.9633,-9.9602 13.2904,-1.5137 l 1.3924,0.4274 c 0.2928,-3.3676 -0.0489,-0.8895 1.0058,-1.8512 -0.0884,-2.88 0.5691,-5.797 -2.4272,-6.6047 -2.3916,-0.6447 -4.7663,0.3978 -6.5416,1.2872 -3.2346,1.6202 -6.5574,4.1022 -8.7132,6.6636 z"
       style="fill:#1b1918;fill-rule:evenodd"
       id="path27" />
    <path
       d="m 167.5403,589.89 3.8707,0.2732 c 0.2066,1.1968 0.4318,1.1161 0.2272,2.4744 -0.2518,1.673 -0.307,0.8479 -0.8406,1.5972 -2.2709,-0.4008 -3.3166,0.018 -4.7763,0.6468 -1.8272,5.7947 -0.1099,29.9535 0.8679,36.8623 3.2321,-0.0103 2.8603,-0.2965 5.7652,-1.1592 l 1.1672,-17.5398 c -1.6336,-1.0714 0.2334,-0.0316 -1.3998,-0.4011 -0.77,-0.1743 -0.3443,-0.0629 -0.8232,-0.1494 -0.0926,-0.0167 -0.342,-0.0504 -0.4188,-0.063 -0.0773,-0.0128 -0.2918,-0.002 -0.4229,-0.0579 -0.1694,-8.4938 2.2098,1.9907 2.204,-7.1733 -0.007,-10.8267 1.5194,-10.7053 1.5047,-12.5592 -0.0117,-1.5057 -0.65,-0.3151 -0.5365,-3.1558 0.1342,-3.357 1.6146,-3.9957 -1.5998,-7.3988 -6.1291,-0.2382 -6.7043,3.3845 -4.789,7.8036 z"
       style="fill:#1b1918;fill-rule:evenodd"
       id="path29" />
    <path
       d="m 215.9949,560.6534 c 1.5652,-0.9259 0.4443,0.2405 1.4305,-1.0193 0.7499,-0.9579 0.2918,-0.4759 0.6796,-1.4279 l 1.8273,0.6959 c 0.001,-2.5409 0.2781,-0.5056 -1.0976,-1.4197 -2.1379,1.0061 -1.6765,0.8367 -2.8398,3.171 z"
       style="fill:#1b1918;fill-rule:evenodd"
       id="path31" />
    <path
       d="m 203.0267,599.9908 1.2102,1.4281 1.188,-2.8519 c -1.0547,0.9617 -0.713,-1.5164 -1.0058,1.8512 z"
       style="fill:#1b1918;fill-rule:evenodd"
       id="path33" />
    <path
       d="m 185.8217,601.3883 1.9212,-1.4752 c -2.0393,0.5371 -0.9805,-0.2823 -1.9212,1.4752 z"
       style="fill:#1b1918;fill-rule:evenodd"
       id="path35" />
    <path
       d="m 71.5272,586.3201 c 0.1566,1.2641 -0.0873,0.7433 -0.4196,1.4232 -0.162,-0.1525 -2.789,0.4216 -0.1469,-2.6893 0.4644,0.7537 0.4255,0.1281 0.5665,1.2661 z m 23.3291,37.5929 -1.9985,1.7614 c -4.7734,4.516 -19.8577,4.4868 -25.6971,0.5341 -1.944,-2.4827 -0.2738,-1.8685 -2.6256,-3.4001 -2.2246,1.2038 -1.2849,0.8028 -1.9979,2.0142 -0.4728,0.5676 -0.1404,0.1129 -1.2884,0.6165 v 1.3599 c 5.1548,3.3306 7.9658,5.3408 16.422,5.3462 3.4842,0.002 6.2902,0.0651 9.4512,-1.0145 2.3777,-0.8122 5.0362,-2.5638 6.818,-3.0652 l 3.3968,-2.2901 c 0.7718,-1.1901 10.1726,-8.948 5.139,-19.0002 -3.7825,-7.5537 -14.1122,-9.2749 -15.4752,-10.0441 1.164,-4.5047 7.0722,-8.568 6.8297,-12.5123 -2.1476,-1.9165 -9.1068,-3.9823 -12.231,-6.0161 l -3.4451,-2.0935 c -5.0922,-1.6448 -9.1812,-6.6305 -12.9619,-6.7579 -4.0819,5.5513 2.0571,6.1691 4.8497,25.6129 3.0539,21.2624 0.0513,24.182 0.3355,29.408 0.1419,2.6092 0.0682,1.0123 0.3559,1.7491 2.7684,0.6539 2.0204,0.0729 4.1398,-1.188 1.2897,-6.3402 1.1337,-22.5601 3.6226,-36.0003 -0.1955,-2.7981 0.1917,-1.9761 -1.4729,-3.4217 -3.2423,0.2616 -0.8507,-0.1053 -1.8108,1.3384 l -2.4571,0.8384 -0.1838,-5.9489 c 1.8069,0.1409 11.7279,4.5917 13.7773,5.7722 -0.1513,3.345 -2.1909,4.1528 -3.8784,7.5022 -0.6632,1.3162 -1.29,2.3269 -1.8434,3.4852 -2.6325,5.5082 2.6975,2.4818 8.9256,5.4412 11.7101,5.5645 9.8524,16.5504 5.304,19.973 z M 69.793,579.5722 c 1.7252,3.4567 0.2427,2.4 0,2.8938 -2.0121,-3.2187 -0.0525,-2.8138 0,-2.8938 z"
       style="fill:#1b1918;fill-rule:evenodd"
       id="path37" />
    <path
       d="m 107.038,626.2351 c 0.4238,-3.9305 1.3027,-6.2119 4.2669,-7.0237 -0.6172,1.4804 -0.9698,1.9489 -1.452,3.4811 -1.0858,3.4491 -0.6143,2.5597 -2.8149,3.5426 z m 40.9029,5.7468 c 2.2252,-1.0498 3.6138,-1.7372 4.1029,-4.299 l -3.9361,-0.4932 c -7.0285,-4.4751 -6.0936,-28.3125 -14.375,-32.296 -3.4606,-0.7404 -11.8788,7.2433 -12.6712,11.3202 4.9674,-0.9987 3.7104,-4.7689 8.086,-5.5632 2.1496,0.9767 3.2605,2.981 3.6886,5.7099 -5.5333,-0.7251 -5.9949,-0.5374 -10.7032,1.7467 -4.5727,2.2185 -4.7747,2.5077 -8.4226,5.3564 -4.2729,3.3368 -11.8969,8.1213 -11.0518,15.8722 1.4956,1.2372 2.4745,1.8177 4.9065,2.0738 6.9528,0.7318 4.394,3.3146 15.3849,-2.6604 9.0301,-4.9093 8.9946,-8.3971 13.2832,-12.8238 2.5674,6.7716 4.7217,17.1257 11.7078,16.0564 z m -33.1802,-4.3572 c -1.654,-3.0243 -2.4628,-3.7187 -0.7433,-8.048 3.5445,-8.9243 13.8126,-12.7452 16.9028,-11.5449 5.6177,2.1822 -3.9073,21.3429 -16.1595,19.5929 z"
       style="fill:#1b1918;fill-rule:evenodd"
       id="path39" />
    <path
       d="M 154.3428,528.9035 H 159.84 V 723.352 h -5.4972 z"
       style="fill:#1b1918;fill-rule:evenodd"
       id="path41" />
    <path
       d="m 199.5307,570.6615 v 5.4972 h -84.8786 v -5.4972 z"
       style="fill:#1b1918;fill-rule:evenodd"
       id="path43" />
    <path
       d="m 162.6414,638.6654 c 0,0 38.1075,-6.0168 36.1018,11.5326 -2.0057,17.5495 -35.099,38.1076 -35.099,38.1076 0,0 53.4007,-46.8824 -1.0028,-49.6402 z"
       style="fill:#1b1918;fill-rule:evenodd"
       id="path45" />
    <path
       d="m 169.1853,684.5804 c 0,0 17.122,1.495 23.8911,21.0505 6.7691,19.5556 6.5184,28.3304 6.5184,28.3304 0,0 1.6557,-18.8349 -4.1139,-32.8469 -5.7697,-14.0121 -15.0011,-18.7927 -26.2956,-16.534 z"
       style="fill:#1b1918;fill-rule:evenodd"
       id="path47" />
    <path
       d="m 73.9363,561.5306 v -23.1588 h 4.69 v 23.1588 z m 7.3959,1.0672 5.0783,0.6145 c 0.0862,0.5984 0.2803,1.0083 0.5822,1.2345 0.4258,0.3184 1.0888,0.4799 1.9945,0.4799 1.1591,0 2.027,-0.1726 2.6093,-0.523 0.388,-0.2315 0.6845,-0.6037 0.8838,-1.1211 0.1349,-0.3668 0.205,-1.0513 0.205,-2.0378 l 0.0215,-2.4528 c -1.3368,1.8275 -3.0189,2.7386 -5.0457,2.7386 -2.2535,0 -4.043,-0.9542 -5.3586,-2.8571 -1.0349,-1.5041 -1.5525,-3.38 -1.5525,-5.6174 0,-2.814 0.6794,-4.9595 2.0324,-6.4417 1.353,-1.4826 3.0405,-2.2267 5.0565,-2.2267 2.0755,0 3.7899,0.9111 5.1375,2.7332 v -2.3771 h 4.14 v 15.0508 c 0,1.9786 -0.1616,3.4611 -0.4904,4.4368 -0.3234,0.9811 -0.7818,1.7464 -1.3748,2.3071 -0.5876,0.5553 -1.3745,0.9972 -2.361,1.3102 -0.9865,0.318 -2.232,0.4742 -3.7358,0.4742 -2.8465,0 -4.8625,-0.4906 -6.0539,-1.4663 -1.1914,-0.9811 -1.7844,-2.2156 -1.7844,-3.7197 0,-0.1454 0.0053,-0.3288 0.0161,-0.5391 z m 3.9784,-9.8002 c 0,1.7787 0.345,3.0781 1.0296,3.9027 0.6902,0.8249 1.5418,1.2399 2.55,1.2399 1.0781,0 1.9945,-0.4258 2.7386,-1.2722 0.7492,-0.8464 1.1211,-2.0971 1.1211,-3.7573 0,-1.736 -0.3558,-3.0243 -1.0726,-3.8653 -0.7118,-0.8408 -1.6172,-1.2615 -2.7117,-1.2615 -1.0618,0 -1.9352,0.4153 -2.6254,1.2399 -0.6846,0.8249 -1.0296,2.0809 -1.0296,3.7738 z m 19.137,8.733 h -4.4311 v -16.7868 h 4.1077 v 2.3825 c 0.7064,-1.1265 1.3425,-1.8652 1.9083,-2.2156 0.5661,-0.3503 1.2075,-0.523 1.9247,-0.523 1.0134,0 1.9891,0.2804 2.9271,0.8357 l -1.3746,3.8707 c -0.7494,-0.4853 -1.4448,-0.7279 -2.0863,-0.7279 -0.6253,0 -1.1537,0.1726 -1.5848,0.5122 -0.4315,0.345 -0.771,0.9595 -1.0188,1.8544 -0.248,0.8949 -0.3722,2.7709 -0.3722,5.6225 z m 16.7545,-5.3045 4.4311,0.7438 c -0.5658,1.6225 -1.4661,2.857 -2.6898,3.7088 -1.2291,0.8465 -2.7655,1.2722 -4.6037,1.2722 -2.9166,0 -5.0783,-0.9541 -6.4744,-2.8624 -1.1052,-1.531 -1.6605,-3.4608 -1.6605,-5.7951 0,-2.7817 0.7279,-4.9649 2.1778,-6.539 1.4503,-1.5795 3.2885,-2.3667 5.5095,-2.3667 2.4905,0 4.4583,0.8249 5.9028,2.4744 1.4395,1.6498 2.1294,4.178 2.0648,7.585 h -11.0943 c 0.0324,1.3152 0.3881,2.3397 1.073,3.0727 0.6791,0.7331 1.531,1.0999 2.5443,1.0999 0.6954,0 1.2776,-0.1888 1.7467,-0.5661 0.4743,-0.3776 0.83,-0.9865 1.0727,-1.8275 z m 0.2588,-4.4961 c -0.0323,-1.2883 -0.3612,-2.2694 -0.9919,-2.9378 -0.6307,-0.6741 -1.3963,-1.0083 -2.302,-1.0083 -0.9649,0 -1.7628,0.3561 -2.3936,1.0622 -0.6307,0.7061 -0.9379,1.671 -0.9272,2.8839 z m 6.6302,-9.2505 v -4.1077 h 4.4314 v 4.1077 z m 4.4314,2.2643 v 16.253 c 0,2.1348 -0.1403,3.6442 -0.4206,4.5229 -0.275,0.8788 -0.8139,1.5687 -1.6118,2.0594 -0.7926,0.4958 -1.806,0.7438 -3.0405,0.7438 -0.4419,0 -0.9164,-0.0377 -1.4283,-0.1185 -0.5123,-0.0756 -1.0622,-0.1941 -1.6498,-0.3557 l 0.7602,-3.7738 c 0.2101,0.0377 0.4097,0.0757 0.5984,0.1026 0.1832,0.027 0.3558,0.0377 0.5174,0.0377 0.4529,0 0.8302,-0.0972 1.1214,-0.2911 0.2911,-0.1941 0.485,-0.4314 0.5768,-0.7064 0.0969,-0.2746 0.1454,-1.0941 0.1454,-2.4636 v -16.0103 z m 6.6518,5.1749 -4.0107,-0.7115 c 0.4529,-1.6387 1.2344,-2.8516 2.3397,-3.6388 1.1049,-0.7869 2.7493,-1.1807 4.9272,-1.1807 1.9783,0 3.4554,0.2319 4.4257,0.7011 0.9649,0.4688 1.6498,1.0618 2.0432,1.7841 0.3935,0.7225 0.593,2.0432 0.593,3.973 l -0.0646,5.1752 c 0,1.4718 0.07,2.5606 0.21,3.2616 0.1403,0.7007 0.4045,1.4499 0.7926,2.2479 h -4.3988 c -0.1134,-0.2912 -0.2588,-0.7223 -0.4261,-1.2938 -0.07,-0.2642 -0.1238,-0.4368 -0.1561,-0.5176 -0.7549,0.7441 -1.5634,1.2991 -2.4259,1.6713 -0.8626,0.3719 -1.7791,0.5604 -2.7547,0.5604 -1.7198,0 -3.0782,-0.4688 -4.07,-1.4068 -0.9922,-0.9326 -1.4879,-2.1186 -1.4879,-3.5527 0,-0.9433 0.2265,-1.7898 0.6791,-2.5336 0.4527,-0.7384 1.0837,-1.3099 1.9029,-1.7033 0.8142,-0.3937 1.9894,-0.7387 3.5258,-1.0352 2.0698,-0.3881 3.5093,-0.7546 4.3072,-1.0888 v -0.4476 c 0,-0.8626 -0.2103,-1.4771 -0.6307,-1.849 -0.426,-0.3666 -1.2237,-0.55 -2.3936,-0.55 -0.7925,0 -1.4071,0.1565 -1.849,0.4746 -0.4476,0.3126 -0.8033,0.8679 -1.0783,1.6602 z m 5.9516,3.5904 c -0.5661,0.1888 -1.4663,0.415 -2.7008,0.6792 -1.2291,0.2641 -2.0379,0.5229 -2.4151,0.771 -0.5769,0.415 -0.868,0.9326 -0.868,1.5633 0,0.6253 0.2319,1.1591 0.6953,1.6118 0.4638,0.4527 1.0514,0.6791 1.7683,0.6791 0.7979,0 1.5633,-0.2641 2.2912,-0.7869 0.5335,-0.4045 0.8892,-0.8895 1.0565,-1.4717 0.1131,-0.3773 0.1726,-1.0998 0.1726,-2.1617 z"
       style="fill:#1b1918;fill-rule:evenodd"
       id="path49" />
    <path
       d="m 134.7228,663.0718 h -4.108 v -2.4636 c -0.6846,0.9595 -1.4987,1.6764 -2.4313,2.1617 -0.9326,0.4799 -1.8759,0.7223 -2.8247,0.7223 -1.9352,0 -3.5904,-0.7761 -4.9703,-2.3341 -1.3745,-1.5579 -2.0647,-3.725 -2.0647,-6.512 0,-2.8465 0.6684,-5.0136 2.0109,-6.4959 1.3422,-1.4825 3.035,-2.2212 5.0833,-2.2212 1.876,0 3.5042,0.7818 4.8734,2.3397 v -8.3557 h 4.4314 z m -11.8384,-8.7168 c 0,1.7952 0.2481,3.0943 0.7387,3.8973 0.7169,1.1645 1.7142,1.7468 2.9971,1.7468 1.0191,0 1.8868,-0.4366 2.5985,-1.3099 0.7169,-0.8734 1.0727,-2.1725 1.0727,-3.9084 0,-1.9353 -0.345,-3.3262 -1.0403,-4.1777 -0.6954,-0.8519 -1.5795,-1.2779 -2.6632,-1.2779 -1.0511,0 -1.9298,0.4207 -2.6413,1.2614 -0.7064,0.8411 -1.0622,2.0971 -1.0622,3.7684 z m 18.199,-2.895 -4.0107,-0.7115 c 0.453,-1.6387 1.2345,-2.8517 2.3397,-3.6389 1.105,-0.7869 2.7493,-1.1806 4.9272,-1.1806 1.9783,0 3.4554,0.2319 4.4257,0.701 0.9649,0.4689 1.6498,1.0619 2.0432,1.7841 0.3935,0.7226 0.593,2.0433 0.593,3.9731 l -0.0646,5.1752 c 0,1.4717 0.07,2.5605 0.2101,3.2615 0.1403,0.7008 0.4045,1.45 0.7925,2.2479 h -4.3988 c -0.1134,-0.2911 -0.2588,-0.7223 -0.426,-1.2937 -0.07,-0.2642 -0.1239,-0.4368 -0.1562,-0.5176 -0.7549,0.7441 -1.5633,1.2991 -2.4259,1.6713 -0.8626,0.3719 -1.779,0.5604 -2.7547,0.5604 -1.7198,0 -3.0782,-0.4689 -4.07,-1.4068 -0.9921,-0.9326 -1.4879,-2.1187 -1.4879,-3.5527 0,-0.9434 0.2265,-1.7898 0.6792,-2.5336 0.4527,-0.7384 1.0837,-1.3099 1.9029,-1.7034 0.8141,-0.3937 1.9893,-0.7387 3.5257,-1.0352 2.0699,-0.388 3.5093,-0.7545 4.3073,-1.0888 v -0.4475 c 0,-0.8626 -0.2104,-1.4772 -0.6308,-1.8491 -0.426,-0.3665 -1.2237,-0.5499 -2.3935,-0.5499 -0.7926,0 -1.4071,0.1565 -1.8491,0.4745 -0.4476,0.3127 -0.8033,0.868 -1.0783,1.6603 z m 5.9517,3.5903 c -0.5661,0.1888 -1.4664,0.415 -2.7009,0.6792 -1.2291,0.2642 -2.0378,0.523 -2.4151,0.771 -0.5769,0.415 -0.868,0.9326 -0.868,1.5633 0,0.6254 0.2319,1.1591 0.6954,1.6118 0.4637,0.4527 1.0513,0.6792 1.7682,0.6792 0.798,0 1.5633,-0.2642 2.2913,-0.7869 0.5334,-0.4045 0.8892,-0.8895 1.0564,-1.4717 0.1131,-0.3773 0.1727,-1.0999 0.1727,-2.1617 z"
       style="fill:#1b1918;fill-rule:evenodd"
       id="path51" />
  </g>
</svg>
