<svg width="26" height="26" viewBox="0 0 26 26" fill="none" xmlns="http://www.w3.org/2000/svg">
<path d="M12.8379 0C5.75449 0 0 5.75449 0 12.8379C0 15.1148 0.624419 17.2396 1.66579 19.0945L0.0207134 24.9673C-0.00556828 25.0612 -0.00675578 25.1605 0.0172693 25.255C0.0412944 25.3496 0.0896927 25.4363 0.157639 25.5063C0.225584 25.5763 0.310704 25.6273 0.40451 25.6542C0.498316 25.6811 0.597531 25.6829 0.692263 25.6595L6.81579 24.142C8.61517 25.1026 10.6569 25.6759 12.8379 25.6759C19.9214 25.6759 25.6759 19.9214 25.6759 12.8379C25.6759 5.75449 19.9214 0 12.8379 0ZM12.8379 1.11634C19.318 1.11634 24.5595 6.35783 24.5595 12.8379C24.5595 19.318 19.318 24.5595 12.8379 24.5595C10.7604 24.5595 8.81471 24.0179 7.12322 23.0714C6.99951 23.0023 6.85414 22.9828 6.71659 23.0169L1.354 24.3459L2.79195 19.2155C2.81252 19.143 2.8182 19.0671 2.80865 18.9923C2.79909 18.9175 2.7745 18.8455 2.73635 18.7805C1.70839 17.0374 1.11634 15.0093 1.11634 12.8379C1.11634 6.35783 6.35783 1.11634 12.8379 1.11634ZM8.17307 6.13988C7.81526 6.13988 7.30425 6.273 6.88448 6.72531C6.63234 6.99698 5.58171 8.02065 5.58171 9.82033C5.58171 11.6966 6.88303 13.3156 7.04037 13.5237H7.04146V13.5248C7.02654 13.5051 7.24117 13.816 7.52768 14.1887C7.81419 14.5614 8.21483 15.0509 8.71816 15.5808C9.7248 16.6407 11.1401 17.8656 12.8968 18.6148C13.7058 18.9593 14.344 19.1673 14.8275 19.319C15.7236 19.6004 16.5398 19.5577 17.1529 19.4673C17.6118 19.3997 18.1165 19.1794 18.6159 18.8634C19.1153 18.5473 19.6047 18.1544 19.8205 17.5573C19.9751 17.1293 20.0537 16.7338 20.0822 16.4083C20.0964 16.2455 20.0982 16.1019 20.0876 15.9689C20.077 15.836 20.0884 15.7341 19.9644 15.5307C19.7046 15.104 19.4103 15.0929 19.1032 14.9409C18.9326 14.8565 18.4468 14.6192 17.9596 14.3871C17.4729 14.1552 17.0515 13.9498 16.792 13.8573C16.6281 13.7983 16.4278 13.7133 16.139 13.7461C15.8501 13.7788 15.5649 13.9872 15.3988 14.2334C15.2413 14.4667 14.6076 15.2148 14.4143 15.4347C14.4118 15.4332 14.4285 15.4409 14.3522 15.4031C14.1132 15.2849 13.821 15.1843 13.3885 14.9562C12.956 14.728 12.415 14.3911 11.823 13.8692V13.8682C10.9418 13.0924 10.3246 12.1185 10.1299 11.7914C10.1431 11.7758 10.1284 11.7947 10.1561 11.7674L10.1572 11.7663C10.3562 11.5703 10.5325 11.3362 10.6816 11.1645C10.8929 10.9211 10.9861 10.7065 11.0871 10.506C11.2884 10.1065 11.1763 9.66682 11.0599 9.43549V9.4344C11.0679 9.45041 10.9969 9.29364 10.9203 9.1128C10.8436 8.93145 10.7457 8.69633 10.6412 8.44561C10.4322 7.94417 10.1989 7.38177 10.0602 7.05236V7.05127C9.89671 6.66327 9.67556 6.38375 9.38643 6.2489C9.09731 6.11405 8.84187 6.15239 8.83153 6.15188H8.83044C8.62412 6.14236 8.39771 6.13988 8.17307 6.13988ZM8.17307 7.25623C8.38826 7.25623 8.60042 7.25885 8.77812 7.26713C8.96091 7.27624 8.94954 7.27699 8.91439 7.26059C8.87867 7.24393 8.92713 7.23852 9.03104 7.48516C9.1669 7.80771 9.40137 8.37215 9.61101 8.87514C9.71583 9.12664 9.81393 9.36266 9.89228 9.54778C9.97062 9.7329 10.0131 9.83626 10.0623 9.93479V9.93588L10.0634 9.93697C10.1117 10.0323 10.1075 9.97126 10.0907 10.0046C9.9729 10.2383 9.95692 10.2957 9.83777 10.433C9.65635 10.642 9.4713 10.8751 9.37335 10.9716C9.28766 11.0557 9.13303 11.1869 9.03649 11.4436C8.93979 11.7007 8.98492 12.0535 9.14005 12.3168C9.3466 12.6675 10.0272 13.7753 11.0849 14.7065C11.751 15.2937 12.3716 15.6823 12.8674 15.9439C13.3631 16.2054 13.7669 16.3581 13.8573 16.4028C14.0718 16.509 14.3063 16.5915 14.579 16.5587C14.8516 16.526 15.0867 16.3605 15.2363 16.1913L15.2374 16.1902C15.4366 15.9645 16.0284 15.2887 16.3123 14.8722C16.3244 14.8765 16.3204 14.8732 16.4148 14.9071V14.9082H16.4159C16.459 14.9235 16.9987 15.1651 17.4799 15.3944C17.9611 15.6237 18.4495 15.862 18.6083 15.9406C18.8373 16.0539 18.9455 16.1277 18.9735 16.1281C18.9754 16.1772 18.9773 16.2304 18.9702 16.3112C18.9506 16.5354 18.8907 16.8457 18.7707 17.1779C18.7119 17.3406 18.4057 17.676 18.0196 17.9204C17.6334 18.1647 17.1634 18.3373 16.9893 18.363C16.466 18.4401 15.8446 18.4682 15.1622 18.2539C14.689 18.1054 14.099 17.9132 13.3351 17.5878C11.7857 16.9271 10.4688 15.8027 9.52816 14.8123C9.05782 14.317 8.68099 13.8561 8.41291 13.5073C8.14532 13.1592 8.02847 12.9781 7.93105 12.8499L7.92996 12.8488C7.75702 12.6201 6.69806 11.1472 6.69806 9.82033C6.69806 8.4161 7.35028 7.86544 7.7032 7.48516C7.88848 7.28553 8.09104 7.25623 8.17307 7.25623Z" fill="#40C351"/>
<path d="M12.8379 0C5.75449 0 0 5.75449 0 12.8379C0 15.1148 0.624419 17.2396 1.66579 19.0945L0.0207134 24.9673C-0.00556828 25.0612 -0.00675578 25.1605 0.0172693 25.255C0.0412944 25.3496 0.0896927 25.4363 0.157639 25.5063C0.225584 25.5763 0.310704 25.6273 0.40451 25.6542C0.498316 25.6811 0.597531 25.6829 0.692263 25.6595L6.81579 24.142C8.61517 25.1026 10.6569 25.6759 12.8379 25.6759C19.9214 25.6759 25.6759 19.9214 25.6759 12.8379C25.6759 5.75449 19.9214 0 12.8379 0ZM12.8379 1.11634C19.318 1.11634 24.5595 6.35783 24.5595 12.8379C24.5595 19.318 19.318 24.5595 12.8379 24.5595C10.7604 24.5595 8.81471 24.0179 7.12322 23.0714C6.99951 23.0023 6.85414 22.9828 6.71659 23.0169L1.354 24.3459L2.79195 19.2155C2.81252 19.143 2.8182 19.0671 2.80865 18.9923C2.79909 18.9175 2.7745 18.8455 2.73635 18.7805C1.70839 17.0374 1.11634 15.0093 1.11634 12.8379C1.11634 6.35783 6.35783 1.11634 12.8379 1.11634ZM8.17307 6.13988C7.81526 6.13988 7.30425 6.273 6.88448 6.72531C6.63234 6.99698 5.58171 8.02065 5.58171 9.82033C5.58171 11.6966 6.88303 13.3156 7.04037 13.5237H7.04146V13.5248C7.02654 13.5051 7.24117 13.816 7.52768 14.1887C7.81419 14.5614 8.21483 15.0509 8.71816 15.5808C9.7248 16.6407 11.1401 17.8656 12.8968 18.6148C13.7058 18.9593 14.344 19.1673 14.8275 19.319C15.7236 19.6004 16.5398 19.5577 17.1529 19.4673C17.6118 19.3997 18.1165 19.1794 18.6159 18.8634C19.1153 18.5473 19.6047 18.1544 19.8205 17.5573C19.9751 17.1293 20.0537 16.7338 20.0822 16.4083C20.0964 16.2455 20.0982 16.1019 20.0876 15.9689C20.077 15.836 20.0884 15.7341 19.9644 15.5307C19.7046 15.104 19.4103 15.0929 19.1032 14.9409C18.9326 14.8565 18.4468 14.6192 17.9596 14.3871C17.4729 14.1552 17.0515 13.9498 16.792 13.8573C16.6281 13.7983 16.4278 13.7133 16.139 13.7461C15.8501 13.7788 15.5649 13.9872 15.3988 14.2334C15.2413 14.4667 14.6076 15.2148 14.4143 15.4347C14.4118 15.4332 14.4285 15.4409 14.3522 15.4031C14.1132 15.2849 13.821 15.1843 13.3885 14.9562C12.956 14.728 12.415 14.3911 11.823 13.8692V13.8682C10.9418 13.0924 10.3246 12.1185 10.1299 11.7914C10.1431 11.7758 10.1284 11.7947 10.1561 11.7674L10.1572 11.7663C10.3562 11.5703 10.5325 11.3362 10.6816 11.1645C10.8929 10.9211 10.9861 10.7065 11.0871 10.506C11.2884 10.1065 11.1763 9.66682 11.0599 9.43549V9.4344C11.0679 9.45041 10.9969 9.29364 10.9203 9.1128C10.8436 8.93145 10.7457 8.69633 10.6412 8.44561C10.4322 7.94417 10.1989 7.38177 10.0602 7.05236V7.05127C9.89671 6.66327 9.67556 6.38375 9.38643 6.2489C9.09731 6.11405 8.84187 6.15239 8.83153 6.15188H8.83044C8.62412 6.14236 8.39771 6.13988 8.17307 6.13988ZM8.17307 7.25623C8.38826 7.25623 8.60042 7.25885 8.77812 7.26713C8.96091 7.27624 8.94954 7.27699 8.91439 7.26059C8.87867 7.24393 8.92713 7.23852 9.03104 7.48516C9.1669 7.80771 9.40137 8.37215 9.61101 8.87514C9.71583 9.12664 9.81393 9.36266 9.89228 9.54778C9.97062 9.7329 10.0131 9.83626 10.0623 9.93479V9.93588L10.0634 9.93697C10.1117 10.0323 10.1075 9.97126 10.0907 10.0046C9.9729 10.2383 9.95692 10.2957 9.83777 10.433C9.65635 10.642 9.4713 10.8751 9.37335 10.9716C9.28766 11.0557 9.13303 11.1869 9.03649 11.4436C8.93979 11.7007 8.98492 12.0535 9.14005 12.3168C9.3466 12.6675 10.0272 13.7753 11.0849 14.7065C11.751 15.2937 12.3716 15.6823 12.8674 15.9439C13.3631 16.2054 13.7669 16.3581 13.8573 16.4028C14.0718 16.509 14.3063 16.5915 14.579 16.5587C14.8516 16.526 15.0867 16.3605 15.2363 16.1913L15.2374 16.1902C15.4366 15.9645 16.0284 15.2887 16.3123 14.8722C16.3244 14.8765 16.3204 14.8732 16.4148 14.9071V14.9082H16.4159C16.459 14.9235 16.9987 15.1651 17.4799 15.3944C17.9611 15.6237 18.4495 15.862 18.6083 15.9406C18.8373 16.0539 18.9455 16.1277 18.9735 16.1281C18.9754 16.1772 18.9773 16.2304 18.9702 16.3112C18.9506 16.5354 18.8907 16.8457 18.7707 17.1779C18.7119 17.3406 18.4057 17.676 18.0196 17.9204C17.6334 18.1647 17.1634 18.3373 16.9893 18.363C16.466 18.4401 15.8446 18.4682 15.1622 18.2539C14.689 18.1054 14.099 17.9132 13.3351 17.5878C11.7857 16.9271 10.4688 15.8027 9.52816 14.8123C9.05782 14.317 8.68099 13.8561 8.41291 13.5073C8.14532 13.1592 8.02847 12.9781 7.93105 12.8499L7.92996 12.8488C7.75702 12.6201 6.69806 11.1472 6.69806 9.82033C6.69806 8.4161 7.35028 7.86544 7.7032 7.48516C7.88848 7.28553 8.09104 7.25623 8.17307 7.25623Z" fill="black" fill-opacity="0.2"/>
</svg>
